<svg xmlns="http://www.w3.org/2000/svg" viewBox="0 0 128 128" fill="none">
  <defs>
    <linearGradient id="sp-shell" x1="16" y1="8" x2="114" y2="120">
      <stop offset="0%" stop-color="#0A84FF"/>
      <stop offset="100%" stop-color="#5AC8FA"/>
    </linearGradient>
    <linearGradient id="sp-core" x1="28" y1="20" x2="100" y2="108">
      <stop offset="0%" stop-color="#FFFFFF"/>
      <stop offset="100%" stop-color="#EDF5FF"/>
    </linearGradient>
    <linearGradient id="sp-pulse" x1="30" y1="64" x2="98" y2="64">
      <stop offset="0%" stop-color="#0A84FF"/>
      <stop offset="100%" stop-color="#34AADC"/>
    </linearGradient>
  </defs>

  <!-- Shell -->
  <rect x="10" y="10" width="108" height="108" rx="30" fill="url(#sp-shell)"/>
  <rect x="13" y="13" width="102" height="102" rx="27" stroke="#FFFFFF" stroke-opacity="0.22" stroke-width="1.2"/>

  <!-- Inner card -->
  <rect x="24" y="20" width="80" height="88" rx="22" fill="url(#sp-core)"/>

  <rect x="38" y="33" width="34" height="3.5" rx="1.75" fill="#0A84FF" fill-opacity="0.1"/>
  <rect x="38" y="41" width="22" height="3.5" rx="1.75" fill="#0A84FF" fill-opacity="0.07"/>

  <!-- Base pulse stroke -->
  <path
    d="M30 68 L42 68 L50 54 L62 82 L74 46 L86 68 L98 68"
    stroke="url(#sp-pulse)"
    stroke-width="6"
    stroke-linecap="round"
    stroke-linejoin="round"
  />

  <!-- Traveling signal highlight -->
  <path
    d="M30 68 L42 68 L50 54 L62 82 L74 46 L86 68 L98 68"
    stroke="#FFFFFF"
    stroke-opacity="0.92"
    stroke-width="2.8"
    stroke-linecap="round"
    stroke-linejoin="round"
    stroke-dasharray="12 90"
    stroke-dashoffset="0"
  >
    <animate attributeName="stroke-dashoffset" values="0;-102" dur="2s" repeatCount="indefinite"/>
  </path>

  <!-- Warm accent dot with pulse -->
  <circle cx="74" cy="46" r="8" fill="#FF9F0A" fill-opacity="0.16">
    <animate attributeName="fill-opacity" values="0.1;0.26;0.1" dur="2s" repeatCount="indefinite"/>
  </circle>
  <circle cx="74" cy="46" r="4.5" fill="#FF9F0A"/>

  <rect x="38" y="92" width="26" height="3.5" rx="1.75" fill="#0A84FF" fill-opacity="0.08"/>
</svg>
